<svg width="41" height="46" viewBox="0 0 41 46" fill="none" xmlns="http://www.w3.org/2000/svg">
<path d="M29.6111 34.5V27.6H13.6667V18.4H29.6111V11.5L41 23L29.6111 34.5ZM25.0556 0C26.2638 0 27.4225 0.484641 28.2768 1.34731C29.1311 2.20998 29.6111 3.38 29.6111 4.6V9.2H25.0556V4.6H4.55556V41.4H25.0556V36.8H29.6111V41.4C29.6111 42.62 29.1311 43.79 28.2768 44.6527C27.4225 45.5154 26.2638 46 25.0556 46H4.55556C3.34735 46 2.18862 45.5154 1.33429 44.6527C0.479959 43.79 0 42.62 0 41.4V4.6C0 3.38 0.479959 2.20998 1.33429 1.34731C2.18862 0.484641 3.34735 0 4.55556 0H25.0556Z" fill="black"/>
</svg>
