<svg width="65" height="65" viewBox="0 0 65 65" fill="none" xmlns="http://www.w3.org/2000/svg">
<path d="M63.2205 25.0151C57.7676 16.9182 45.9402 13.986 36.3401 18.351V1.69061H28.6599V18.351C19.0598 13.986 7.23236 16.9182 1.77947 25.0151C-5.90066 35.0113 13.2997 65 20.9798 65C28.6599 65 28.6599 61.6679 32.5 61.6679C36.3401 61.6679 36.3401 65 44.0202 65C51.7003 65 70.9007 35.0113 63.2205 25.0151ZM56.5004 36.2775C54.1196 44.5077 49.4347 52.0716 42.8682 58.3358C42.1002 58.3358 41.2169 58.0026 40.5641 57.5028C35.8409 54.2041 29.1591 54.2041 24.4359 57.5028C23.783 58.0026 22.8998 58.3358 22.1318 58.3358C15.5653 52.1049 10.842 44.5078 8.49959 36.3109C7.53957 33.8784 7.34757 31.2461 8.15398 28.747C10.3812 25.315 14.5285 23.1158 19.0598 23.0159C21.2102 23.0492 23.3222 23.4824 25.2423 24.3154L28.6599 25.8148H36.3401L39.7577 24.3154C41.6778 23.4824 43.7898 23.0492 45.9402 23.0159C50.4715 23.1158 54.6188 25.2817 56.846 28.7137C57.6524 31.2128 57.4604 33.8451 56.5004 36.2775ZM28.6599 8.35476C7.07876 18.5842 2.20188 4.28963 2.20188 4.28963C2.20188 4.28963 12.4165 -7.67252 28.6599 8.35476Z" fill="black"/>
</svg>
