<?xml version="1.0" standalone="no"?>
<!DOCTYPE svg PUBLIC "-//W3C//DTD SVG 20010904//EN"
 "http://www.w3.org/TR/2001/REC-SVG-20010904/DTD/svg10.dtd">
<svg version="1.0" xmlns="http://www.w3.org/2000/svg"
 width="1151.000000pt" height="1280.000000pt" viewBox="0 0 1151.000000 1280.000000"
 preserveAspectRatio="xMidYMid meet">
<metadata>
Created by potrace 1.15, written by Peter Selinger 2001-2017
</metadata>
<g transform="translate(0.000000,1280.000000) scale(0.100000,-0.100000)"
fill="#000000" stroke="none">
<path d="M5145 12469 c-38 -16 -76 -36 -85 -43 -8 -7 -100 -57 -205 -109 -213
-108 -359 -194 -485 -284 -82 -59 -140 -110 -140 -125 0 -14 65 -70 138 -119
117 -79 177 -133 212 -195 17 -31 42 -67 55 -80 14 -14 49 -55 78 -92 30 -37
101 -119 157 -182 98 -110 218 -277 240 -334 5 -15 21 -42 34 -59 70 -93 214
-397 359 -757 104 -259 139 -361 188 -555 32 -122 34 -140 34 -300 -1 -137 -4
-179 -18 -213 -12 -32 -14 -49 -6 -63 8 -15 0 -49 -35 -152 -63 -182 -78 -261
-79 -398 l-1 -116 -136 -22 c-166 -27 -257 -27 -330 -1 -30 11 -122 31 -205
45 -287 48 -342 63 -608 166 -132 52 -196 71 -245 76 -38 3 -75 12 -85 21 -14
12 -22 13 -43 4 -35 -16 -201 -15 -257 2 -25 7 -59 23 -75 35 -17 11 -38 21
-49 21 -10 0 -23 8 -28 18 -53 97 -79 115 -223 151 -131 33 -231 45 -392 45
-140 1 -165 -2 -250 -26 -53 -15 -147 -40 -210 -56 -147 -38 -319 -108 -438
-180 -52 -31 -131 -79 -176 -105 -44 -27 -113 -73 -151 -102 -92 -70 -318
-273 -328 -295 -5 -9 -21 -24 -37 -33 -16 -10 -40 -32 -55 -50 -14 -17 -47
-55 -73 -82 -61 -65 -132 -166 -132 -186 0 -9 -15 -36 -34 -60 -139 -183 -363
-875 -451 -1394 -46 -275 -55 -388 -66 -845 -11 -444 -5 -655 22 -780 6 -25
14 -67 19 -95 53 -305 129 -555 256 -841 55 -124 228 -478 256 -525 8 -13 63
-105 122 -204 113 -191 193 -308 291 -425 96 -115 233 -267 325 -360 47 -47
139 -143 204 -214 103 -110 308 -295 449 -404 23 -18 53 -42 65 -52 13 -11 28
-20 34 -20 6 0 32 -15 58 -34 27 -19 66 -44 88 -55 22 -11 61 -35 86 -52 110
-74 339 -187 539 -265 472 -186 847 -237 1242 -170 244 42 676 154 830 216
146 59 251 90 305 90 20 0 63 7 95 16 151 39 400 27 825 -41 263 -42 491 -71
669 -85 176 -13 583 -12 691 3 47 6 153 10 235 9 109 -2 172 2 230 14 78 17
195 64 225 91 8 7 26 23 40 34 16 14 19 19 8 15 -10 -3 -18 -1 -18 4 0 5 11
12 25 16 14 3 25 10 25 15 0 5 9 9 19 9 10 0 21 7 25 15 3 8 14 15 26 15 11 0
41 21 67 47 27 26 39 44 28 39 -16 -6 -18 -5 -8 5 7 7 28 18 45 23 18 6 31 14
28 19 -3 4 10 16 29 28 18 11 31 23 27 26 -3 3 -14 0 -23 -8 -17 -13 -17 -13
-3 5 8 10 24 22 37 27 13 5 23 17 23 27 0 11 12 24 27 31 22 10 24 14 12 22
-12 7 -12 9 2 9 21 0 56 27 47 36 -4 4 -16 1 -25 -7 -16 -13 -17 -12 -4 4 7 9
23 17 35 17 17 0 18 2 6 10 -11 7 -9 11 11 19 25 9 48 41 30 41 -5 0 -12 -7
-15 -16 -4 -9 -9 -14 -13 -10 -10 9 27 45 42 40 7 -3 20 5 29 18 23 32 20 45
-4 17 -19 -23 -19 -22 1 14 19 33 30 41 51 38 9 -1 48 49 48 61 0 6 -7 8 -15
4 -8 -3 -15 -1 -15 4 0 6 11 10 25 10 14 0 25 5 25 11 0 5 -5 7 -12 3 -7 -4
-8 -3 -4 5 4 6 12 9 17 6 15 -10 69 51 69 77 1 31 29 63 63 72 23 5 27 11 21
28 -5 16 -3 20 9 15 16 -6 65 38 54 49 -4 4 -16 -4 -28 -17 l-21 -24 21 32
c12 18 28 30 35 27 7 -3 19 3 27 12 10 13 11 18 2 21 -7 2 -9 12 -6 20 6 14 7
14 13 -3 6 -18 8 -17 19 4 9 17 9 22 -1 22 -7 0 4 11 25 24 34 21 37 25 22 33
-15 9 -15 11 -1 16 8 3 18 2 21 -4 4 -5 16 2 27 16 15 20 18 29 9 38 -8 8 1
22 37 55 26 24 41 41 35 37 -8 -4 -13 0 -13 10 0 8 7 18 15 21 12 5 13 10 4
20 -9 11 -6 14 14 14 17 0 25 4 21 13 -2 7 9 21 26 31 23 13 28 21 20 31 -7 9
-6 15 3 24 8 6 17 8 20 4 4 -3 10 3 14 13 3 10 15 25 26 33 10 7 16 20 13 27
-3 8 1 17 10 21 12 4 13 8 3 13 -8 6 -5 11 10 19 24 13 28 41 6 41 -8 0 -15 5
-15 10 0 13 6 13 31 0 16 -9 21 -7 29 15 6 15 22 42 36 61 15 19 24 37 20 41
-3 3 3 13 14 20 11 8 18 18 15 22 -2 5 4 16 15 26 13 11 18 25 14 37 -3 12 0
18 9 18 14 0 28 28 31 58 1 8 9 18 19 23 22 13 22 30 0 23 -15 -5 -14 -3 2 10
36 27 53 47 58 67 3 10 1 19 -4 19 -5 0 -9 5 -9 10 0 6 8 10 17 10 9 0 25 7
35 17 17 15 17 18 2 34 -15 16 -13 19 25 39 42 21 50 37 29 58 -9 9 -2 31 31
97 43 83 53 95 66 75 4 -6 11 -8 16 -4 5 3 7 9 4 14 -3 4 2 13 10 20 19 16 20
44 1 37 -10 -4 -12 0 -9 14 5 20 23 27 23 9 0 -19 17 -10 28 14 10 23 8 68 -4
88 -10 15 33 93 71 130 37 35 38 38 18 45 -20 7 -20 10 -8 41 9 21 21 32 34
32 24 0 35 30 26 69 -7 34 15 87 49 113 18 15 19 20 9 37 -17 27 18 147 51
177 43 38 59 84 30 84 -12 0 -14 7 -10 27 3 16 10 59 15 96 6 38 16 74 23 80
8 7 20 20 28 30 12 17 11 21 -7 35 -23 18 -23 18 3 139 2 13 10 23 18 23 13 0
26 41 26 86 0 15 -6 24 -16 24 -12 0 -10 7 10 31 31 37 34 81 6 109 -21 21
-24 43 -14 139 4 34 12 61 18 61 6 0 12 24 14 58 1 31 4 68 5 82 1 16 -3 24
-10 22 -15 -2 -18 14 -4 20 13 5 24 48 12 48 -6 0 -8 7 -5 15 5 11 2 13 -10 9
-16 -6 -17 7 -13 147 3 85 8 171 12 193 5 28 4 41 -6 47 -8 5 -9 9 -3 9 13 0
19 116 5 124 -5 3 -7 16 -3 29 5 20 4 21 -13 7 -17 -14 -17 -14 -1 18 10 20
14 41 10 50 -4 10 -6 21 -5 26 1 5 -1 16 -5 25 -3 9 -7 43 -9 76 -3 86 -16
185 -25 190 -5 3 -6 14 -3 25 3 13 -1 22 -11 26 -12 4 -14 10 -7 18 7 9 0 54
-24 144 -37 139 -56 195 -88 252 -11 19 -26 53 -33 74 -8 22 -40 87 -72 144
-31 57 -67 124 -80 148 -12 25 -29 47 -37 50 -8 4 -15 12 -15 18 0 17 -57 121
-75 136 -7 6 -12 17 -9 24 2 6 -4 21 -15 32 -10 12 -27 36 -36 55 -23 46 -83
125 -174 233 -107 125 -510 446 -744 592 -50 32 -128 81 -173 111 -168 110
-345 173 -544 193 -52 5 -120 14 -150 20 -120 21 -199 23 -346 6 -82 -10 -167
-21 -189 -27 -22 -5 -80 -14 -130 -19 -103 -11 -298 -50 -430 -87 -49 -13
-121 -33 -160 -43 -38 -10 -83 -25 -100 -34 -16 -9 -35 -16 -42 -16 -24 0
-127 -37 -358 -129 -38 -15 -85 -33 -102 -39 -83 -30 -100 -36 -128 -48 -16
-7 -43 -16 -60 -19 -16 -4 -73 -20 -125 -35 -221 -65 -433 -121 -438 -115 -3
3 -1 42 6 87 15 101 56 191 117 257 29 31 44 55 39 62 -4 8 -3 9 4 5 6 -4 49
22 94 56 46 35 106 74 133 87 48 23 75 27 285 50 52 6 145 26 205 45 61 18
121 37 135 40 14 4 124 11 245 16 121 5 254 14 295 20 41 6 163 15 271 19 107
4 200 11 206 14 6 4 77 18 158 32 80 13 194 40 252 60 57 19 117 35 131 35 15
0 43 5 62 10 19 6 73 15 118 20 46 5 90 14 97 20 7 6 25 8 39 4 16 -4 32 -1
42 7 8 7 32 13 52 15 86 5 159 17 180 31 12 7 26 12 31 9 4 -3 48 12 97 33 49
21 196 73 326 115 265 85 349 120 399 163 19 17 40 28 47 26 6 -3 12 2 12 11
0 9 6 16 13 16 7 0 22 7 33 15 13 10 14 14 4 12 -8 -2 -5 1 8 7 12 5 21 15 19
20 -5 14 15 33 38 37 10 2 20 10 23 18 3 9 0 11 -9 6 -7 -5 -2 9 11 31 31 51
34 54 27 24 l-6 -25 19 25 c11 14 26 32 33 40 20 24 87 137 87 148 0 5 14 42
30 80 17 39 30 82 30 95 0 14 9 44 19 68 36 83 82 398 88 604 2 72 7 141 11
155 5 14 10 99 11 190 1 91 7 208 12 260 5 52 16 181 24 285 18 243 22 272 47
377 19 81 20 88 4 103 -23 23 -40 7 -61 -55 -11 -32 -28 -57 -51 -75 -20 -15
-70 -59 -113 -99 -43 -39 -109 -88 -147 -108 -38 -21 -109 -62 -159 -91 -49
-29 -117 -63 -150 -76 -33 -13 -78 -31 -100 -41 -68 -30 -145 -57 -270 -94
-174 -52 -383 -123 -600 -206 -104 -40 -281 -103 -391 -140 -500 -170 -958
-387 -1170 -556 -23 -18 -81 -63 -130 -100 -49 -36 -93 -71 -99 -78 -5 -7 -40
-38 -77 -69 -37 -31 -107 -98 -155 -149 -48 -51 -149 -156 -224 -233 -92 -96
-157 -174 -204 -245 -141 -217 -176 -267 -228 -328 -48 -57 -142 -142 -158
-142 -11 0 -18 84 -8 102 6 12 6 18 0 18 -9 0 -12 24 -12 93 0 15 -3 27 -7 27
-4 0 -8 39 -9 86 0 47 -4 93 -9 102 -4 9 -9 67 -11 127 -2 61 -8 126 -13 146
-6 20 -8 44 -4 52 3 8 1 18 -4 21 -5 3 -7 37 -4 76 3 44 0 81 -8 100 -10 24
-10 33 0 45 10 12 9 20 -4 40 -14 21 -16 40 -10 108 5 69 2 101 -21 200 -14
65 -32 135 -40 157 -9 25 -10 40 -4 42 13 4 -14 125 -36 169 -9 16 -13 34 -10
39 3 5 1 11 -4 14 -4 3 -11 20 -15 37 -3 17 -20 75 -37 130 -23 71 -36 99 -48
99 -12 0 -13 2 -3 8 15 10 7 38 -14 46 -8 3 -14 19 -14 36 0 16 -4 30 -10 30
-5 0 -10 9 -10 19 0 11 -4 23 -10 26 -5 3 -10 13 -10 21 0 9 -14 36 -31 60
-17 25 -75 132 -128 237 -139 274 -302 539 -339 550 -9 3 -24 7 -32 10 -8 3
-46 -8 -85 -24z m5244 -503 c-13 -13 -202 -117 -205 -113 -8 8 173 116 195
117 8 0 12 -2 10 -4z m81 -66 c-16 -30 -22 -19 -7 13 6 14 13 22 15 17 2 -5
-2 -19 -8 -30z m-55 -130 c-24 -52 -30 -46 -8 8 9 23 18 40 21 37 3 -3 -3 -23
-13 -45z m-340 10 c-3 -5 -14 -10 -23 -9 -14 0 -13 2 3 9 27 11 27 11 20 0z
m-150 -29 c-6 -5 -23 -12 -40 -15 l-30 -6 30 14 c35 18 54 20 40 7z m-5266
-166 c0 -5 -9 1 -19 14 -11 13 -20 28 -20 35 0 6 9 0 20 -14 11 -14 20 -29 19
-35z m4921 45 c0 -5 -5 -10 -11 -10 -5 0 -7 5 -4 10 3 6 8 10 11 10 2 0 4 -4
4 -10z m-200 -64 c0 -3 -4 -8 -10 -11 -5 -3 -10 -1 -10 4 0 6 5 11 10 11 6 0
10 -2 10 -4z m-225 -76 c-3 -5 -11 -10 -16 -10 -6 0 -7 5 -4 10 3 6 11 10 16
10 6 0 7 -4 4 -10z m-4395 -30 c6 -11 8 -20 6 -20 -3 0 -10 9 -16 20 -6 11 -8
20 -6 20 3 0 10 -9 16 -20z m344 -426 c10 -25 -1 -29 -14 -5 -6 12 -7 21 -1
21 5 0 12 -7 15 -16z m2395 -290 c-17 -21 -89 -67 -95 -61 -6 5 86 77 99 77 5
0 3 -7 -4 -16z m1961 2 c0 -2 -8 -10 -17 -17 -16 -13 -17 -12 -4 4 13 16 21
21 21 13z m-2085 -96 c-10 -11 -23 -20 -28 -20 -6 0 -2 9 8 20 10 11 23 20 28
20 6 0 2 -9 -8 -20z m-85 -64 c0 -3 -15 -15 -32 -27 l-33 -23 24 27 c22 24 41
35 41 23z m-88 -78 c-12 -12 -25 -18 -29 -14 -4 4 3 16 17 26 32 24 40 16 12
-12z m1498 -29 c-7 -11 -14 -18 -17 -15 -3 3 0 12 7 21 18 21 23 19 10 -6z
m-1557 -25 c-9 -15 -19 -21 -21 -15 -4 13 16 41 29 41 5 0 2 -12 -8 -26z m-93
-77 c0 -8 -38 -47 -45 -47 -5 0 2 11 15 25 22 24 30 29 30 22z m3291 -294
c-12 -20 -14 -14 -5 12 4 9 9 14 11 11 3 -2 0 -13 -6 -23z m-1436 -93 c-3 -5
-11 -10 -16 -10 -6 0 -7 5 -4 10 3 6 11 10 16 10 6 0 7 -4 4 -10z m-145 -50
c0 -5 -8 -10 -17 -10 -15 0 -16 2 -3 10 19 12 20 12 20 0z m1490 -10 c0 -5 -2
-10 -4 -10 -3 0 -8 5 -11 10 -3 6 -1 10 4 10 6 0 11 -4 11 -10z m-1574 -25
c-25 -19 -37 -19 -30 0 4 8 16 15 28 15 21 -1 21 -1 2 -15z m-306 -119 c0 -2
-7 -6 -15 -10 -8 -3 -15 -1 -15 4 0 6 7 10 15 10 8 0 15 -2 15 -4z m-75 -35
c-8 -13 -94 -45 -102 -38 -3 4 14 16 38 27 47 21 74 26 64 11z m-175 -70 c0
-9 -41 -23 -48 -16 -2 2 -1 8 3 14 8 13 45 15 45 2z m-70 -16 c-7 -8 -20 -15
-29 -15 -13 1 -13 3 3 15 26 19 42 19 26 0z m-50 -19 c0 -11 -19 -15 -25 -6
-3 5 1 10 9 10 9 0 16 -2 16 -4z m-65 -16 c3 -6 -1 -13 -10 -16 -19 -8 -30 0
-20 15 8 14 22 14 30 1z m685 -720 c0 -5 -18 -10 -40 -10 -22 0 -40 5 -40 10
0 6 18 10 40 10 22 0 40 -4 40 -10z m-518 -22 c-12 -12 -35 -1 -27 12 3 5 13
6 21 3 10 -4 12 -9 6 -15z m-62 2 c0 -12 -9 -16 -57 -24 -25 -4 -31 -2 -27 9
5 12 21 17 72 24 6 0 12 -4 12 -9z m-221 -51 c-17 -11 -52 -12 -46 -1 3 4 17
8 33 9 19 1 23 -1 13 -8z m-75 -9 c-11 -11 -74 -32 -74 -24 0 5 61 32 75 33 5
1 5 -3 -1 -9z m-149 -31 c-8 -12 -35 -12 -35 0 0 11 22 20 33 14 4 -2 5 -9 2
-14z m-45 -6 c0 -11 -148 -58 -156 -50 -4 4 -1 9 7 12 114 42 149 51 149 38z
m-300 -93 c-8 -5 -24 -9 -35 -9 l-20 0 20 9 c11 5 27 9 35 9 13 1 13 0 0 -9z
m-74 -25 c-11 -8 -29 -15 -40 -15 -21 1 -21 1 -2 15 11 8 29 15 40 15 21 -1
21 -1 2 -15z m-66 -15 c0 -12 -48 -32 -64 -27 -8 3 31 26 62 36 1 1 2 -4 2 -9z
m-250 -104 c0 -2 -9 -6 -20 -9 -11 -3 -20 -1 -20 4 0 5 9 9 20 9 11 0 20 -2
20 -4z m-82 -32 c-17 -17 -78 -30 -78 -16 0 12 72 42 83 35 5 -3 3 -11 -5 -19z
m-118 -30 c0 -17 -32 -34 -55 -28 -31 8 -21 28 11 21 13 -2 24 0 24 4 0 5 5 9
10 9 6 0 10 -3 10 -6z m-100 -31 c0 -11 -140 -57 -147 -49 -10 10 3 18 59 37
57 20 88 24 88 12z m-4650 -13 c-8 -5 -19 -10 -25 -10 -5 0 -3 5 5 10 8 5 20
10 25 10 6 0 3 -5 -5 -10z m4478 -42 c-5 -15 -48 -24 -48 -10 0 14 12 22 33
22 10 0 17 -5 15 -12z m-5068 -442 c0 -2 -8 -10 -17 -17 -16 -13 -17 -12 -4 4
13 16 21 21 21 13z m7725 -757 c11 -16 1 -19 -13 -3 -7 8 -8 14 -3 14 5 0 13
-5 16 -11z m1857 -871 c-7 -7 -12 -8 -12 -2 0 14 12 26 19 19 2 -3 -1 -11 -7
-17z m-7471 -648 c-13 -11 -28 -20 -35 -20 -6 0 0 9 14 20 33 26 52 25 21 0z
m-2211 -84 c0 -2 -7 -7 -16 -10 -8 -3 -12 -2 -9 4 6 10 25 14 25 6z m-50 -36
c0 -5 -5 -10 -11 -10 -5 0 -7 5 -4 10 3 6 8 10 11 10 2 0 4 -4 4 -10z m-127
-134 c-10 -13 -20 -22 -22 -20 -4 4 29 44 36 44 2 0 -4 -11 -14 -24z m2507
-70 c0 -2 -8 -10 -17 -17 -16 -13 -17 -12 -4 4 13 16 21 21 21 13z m-198 -148
c-7 -7 -12 -8 -12 -2 0 14 12 26 19 19 2 -3 -1 -11 -7 -17z m-92 -53 c-7 -8
-20 -15 -29 -15 -11 1 -8 5 9 15 32 18 35 18 20 0z m5560 5 c12 -8 11 -10 -7
-10 -12 0 -25 5 -28 10 -8 13 15 13 35 0z m2056 -326 c-3 -9 -6 -20 -6 -25 0
-5 -4 -9 -9 -9 -4 0 -6 11 -3 25 2 14 9 25 14 25 6 0 7 -7 4 -16z m-10266
-226 c5 -16 6 -28 2 -28 -11 0 -29 53 -24 70 5 13 6 13 9 0 3 -8 8 -27 13 -42z
m10211 -55 c-8 -15 -10 -15 -11 -2 0 17 10 32 18 25 2 -3 -1 -13 -7 -23z
m-10181 -83 c0 -5 -4 -10 -10 -10 -5 0 -10 5 -10 10 0 6 5 10 10 10 6 0 10 -4
10 -10z m10105 -149 c3 -5 1 -12 -5 -16 -5 -3 -10 1 -10 9 0 18 6 21 15 7z
m-69 -188 c-11 -11 -19 6 -11 24 8 17 8 17 12 0 3 -10 2 -21 -1 -24z m-36
-112 c0 -5 -7 -11 -15 -15 -9 -3 -15 0 -15 9 0 8 7 15 15 15 8 0 15 -4 15 -9z
m-8645 -161 c-3 -5 -21 -9 -38 -9 l-32 2 35 7 c19 4 36 8 38 9 2 0 0 -3 -3 -9z
m8385 -385 c0 -8 -7 -15 -15 -15 -9 0 -12 6 -9 15 4 8 10 15 15 15 5 0 9 -7 9
-15z m-60 -95 c0 -5 -7 -10 -16 -10 -8 0 -12 5 -9 10 3 6 10 10 16 10 5 0 9
-4 9 -10z m-65 -100 c-3 -5 -12 -10 -18 -10 -7 0 -6 4 3 10 19 12 23 12 15 0z
m-88 -143 c-11 -25 -27 -36 -27 -19 0 11 31 54 36 49 2 -2 -2 -15 -9 -30z
m-2117 -47 c0 -5 -8 -10 -17 -10 -15 0 -16 2 -3 10 19 12 20 12 20 0z m902
-42 c-7 -7 -12 -8 -12 -2 0 14 12 26 19 19 2 -3 -1 -11 -7 -17z m-2062 -88
c-6 -11 -13 -20 -16 -20 -2 0 0 9 6 20 6 11 13 20 16 20 2 0 0 -9 -6 -20z
m945 -250 c-3 -5 -11 -10 -16 -10 -6 0 -7 5 -4 10 3 6 11 10 16 10 6 0 7 -4 4
-10z m1898 -285 c-3 -9 -8 -14 -10 -11 -3 3 -2 9 2 15 9 16 15 13 8 -4z
m-7403 -655 c0 -5 -4 -10 -10 -10 -5 0 -10 5 -10 10 0 6 5 10 10 10 6 0 10 -4
10 -10z m127 -116 c-3 -3 -12 -4 -19 -1 -8 3 -5 6 6 6 11 1 17 -2 13 -5z m173
-114 c8 -5 11 -12 7 -16 -4 -4 -15 0 -24 9 -18 18 -8 23 17 7z m195 -130 c8
-13 -5 -13 -25 0 -13 8 -13 10 2 10 9 0 20 -4 23 -10z m66 -36 c17 -8 29 -18
26 -20 -6 -6 -67 23 -67 31 0 8 10 6 41 -11z m334 -160 c34 -22 21 -37 -16
-19 -16 9 -27 20 -24 25 8 13 12 13 40 -6z m1175 -234 c8 -5 11 -10 5 -10 -5
0 -17 5 -25 10 -8 5 -10 10 -5 10 6 0 17 -5 25 -10z"/>
<path d="M10885 4930 c-3 -5 1 -10 9 -10 9 0 16 5 16 10 0 6 -4 10 -9 10 -6 0
-13 -4 -16 -10z"/>
<path d="M10721 4261 c-11 -19 -6 -31 12 -31 6 0 7 3 4 6 -3 4 -2 15 4 25 6
13 6 19 0 19 -6 0 -15 -8 -20 -19z"/>
<path d="M10455 3641 c-6 -11 9 -23 19 -14 9 9 7 23 -3 23 -6 0 -12 -4 -16 -9z"/>
<path d="M9467 2114 c-10 -13 -14 -24 -9 -24 13 0 35 27 30 39 -1 5 -11 -2
-21 -15z"/>
</g>
</svg>
