<svg width="65" height="65" viewBox="0 0 65 65" fill="none" xmlns="http://www.w3.org/2000/svg">
<path d="M32.5 0C28.232 0 24.0059 0.840638 20.0628 2.47392C16.1197 4.10719 12.5369 6.50113 9.51903 9.51903C3.4241 15.614 0 23.8805 0 32.5C0 41.1195 3.4241 49.386 9.51903 55.481C12.5369 58.4989 16.1197 60.8928 20.0628 62.5261C24.0059 64.1594 28.232 65 32.5 65C41.1195 65 49.386 61.5759 55.481 55.481C61.5759 49.386 65 41.1195 65 32.5C65 28.232 64.1594 24.0059 62.5261 20.0628C60.8928 16.1197 58.4989 12.5369 55.481 9.51903C52.4631 6.50113 48.8803 4.10719 44.9372 2.47392C40.9941 0.840638 36.768 0 32.5 0ZM16.4775 52.91C17.875 49.985 26.39 47.125 32.5 47.125C38.61 47.125 47.125 49.985 48.5225 52.91C44.1025 56.42 38.545 58.5 32.5 58.5C26.455 58.5 20.8975 56.42 16.4775 52.91ZM53.17 48.1975C48.5225 42.5425 37.245 40.625 32.5 40.625C27.755 40.625 16.4775 42.5425 11.83 48.1975C8.515 43.875 6.5 38.415 6.5 32.5C6.5 18.1675 18.1675 6.5 32.5 6.5C46.8325 6.5 58.5 18.1675 58.5 32.5C58.5 38.415 56.485 43.875 53.17 48.1975ZM32.5 13C26.195 13 21.125 18.07 21.125 24.375C21.125 30.68 26.195 35.75 32.5 35.75C38.805 35.75 43.875 30.68 43.875 24.375C43.875 18.07 38.805 13 32.5 13ZM32.5 29.25C31.2071 29.25 29.9671 28.7364 29.0529 27.8221C28.1386 26.9079 27.625 25.6679 27.625 24.375C27.625 23.0821 28.1386 21.8421 29.0529 20.9279C29.9671 20.0136 31.2071 19.5 32.5 19.5C33.7929 19.5 35.0329 20.0136 35.9471 20.9279C36.8614 21.8421 37.375 23.0821 37.375 24.375C37.375 25.6679 36.8614 26.9079 35.9471 27.8221C35.0329 28.7364 33.7929 29.25 32.5 29.25Z" fill="black"/>
</svg>
