<svg width="65" height="65" viewBox="0 0 65 65" fill="none" xmlns="http://www.w3.org/2000/svg">
<path d="M32.5 55.9C24.375 55.9 17.1925 51.74 13 45.5C13.0975 39 26 35.425 32.5 35.425C39 35.425 51.9025 39 52 45.5C47.8075 51.74 40.625 55.9 32.5 55.9ZM32.5 9.75C35.0859 9.75 37.5658 10.7772 39.3943 12.6057C41.2228 14.4342 42.25 16.9141 42.25 19.5C42.25 22.0859 41.2228 24.5658 39.3943 26.3943C37.5658 28.2228 35.0859 29.25 32.5 29.25C29.9141 29.25 27.4342 28.2228 25.6057 26.3943C23.7772 24.5658 22.75 22.0859 22.75 19.5C22.75 16.9141 23.7772 14.4342 25.6057 12.6057C27.4342 10.7772 29.9141 9.75 32.5 9.75ZM32.5 0C28.232 0 24.0059 0.840638 20.0628 2.47392C16.1197 4.10719 12.5369 6.50113 9.51903 9.51903C3.4241 15.614 0 23.8805 0 32.5C0 41.1195 3.4241 49.386 9.51903 55.481C12.5369 58.4989 16.1197 60.8928 20.0628 62.5261C24.0059 64.1594 28.232 65 32.5 65C41.1195 65 49.386 61.5759 55.481 55.481C61.5759 49.386 65 41.1195 65 32.5C65 14.5275 50.375 0 32.5 0Z" fill="black"/>
</svg>
